<svg width="24" height="24" viewBox="0 0 24 24" fill="black" xmlns="http://www.w3.org/2000/svg">
<path fill-rule="evenodd" clip-rule="evenodd" d="M12.0012 0.800293C8.95946 0.800293 8.57772 0.813593 7.38304 0.86796C6.19069 0.922561 5.37682 1.11133 4.66468 1.3883C3.92804 1.67437 3.30316 2.05704 2.68062 2.67981C2.05762 3.30235 1.67495 3.92723 1.38794 4.66363C1.11027 5.37601 0.921272 6.19012 0.867605 7.38199C0.814171 8.57667 0.800171 8.95864 0.800171 12.0004C0.800171 15.0422 0.813704 15.4227 0.867838 16.6174C0.922672 17.8098 1.11144 18.6236 1.38818 19.3358C1.67448 20.0724 2.05715 20.6973 2.67992 21.3198C3.30223 21.9428 3.9271 22.3265 4.66328 22.6125C5.37589 22.8895 6.18999 23.0783 7.38211 23.1329C8.57679 23.1872 8.95829 23.2005 11.9998 23.2005C15.0418 23.2005 15.4224 23.1872 16.6171 23.1329C17.8094 23.0783 18.6242 22.8895 19.3368 22.6125C20.0732 22.3265 20.6972 21.9428 21.3195 21.3198C21.9425 20.6973 22.3252 20.0724 22.6122 19.336C22.8875 18.6236 23.0765 17.8095 23.1325 16.6177C23.1862 15.423 23.2002 15.0422 23.2002 12.0004C23.2002 8.95864 23.1862 8.57691 23.1325 7.38223C23.0765 6.18988 22.8875 5.37601 22.6122 4.66387C22.3252 3.92723 21.9425 3.30235 21.3195 2.67981C20.6965 2.05681 20.0735 1.67414 19.3361 1.3883C18.6221 1.11133 17.8078 0.922561 16.6154 0.86796C15.4208 0.813593 15.0404 0.800293 11.9977 0.800293H12.0012ZM10.9964 2.81862C11.2946 2.81815 11.6274 2.81862 12.0012 2.81862C14.9916 2.81862 15.346 2.82935 16.527 2.88302C17.619 2.93295 18.2116 3.11542 18.6064 3.26872C19.1291 3.47172 19.5018 3.71439 19.8935 4.1064C20.2855 4.4984 20.5282 4.87174 20.7317 5.39441C20.885 5.78875 21.0677 6.38142 21.1174 7.47343C21.171 8.65411 21.1827 9.00878 21.1827 11.9978C21.1827 14.9868 21.171 15.3415 21.1174 16.5222C21.0674 17.6142 20.885 18.2069 20.7317 18.6012C20.5287 19.1239 20.2855 19.4961 19.8935 19.8878C19.5015 20.2798 19.1293 20.5225 18.6064 20.7255C18.2121 20.8795 17.619 21.0615 16.527 21.1114C15.3463 21.1651 14.9916 21.1768 12.0012 21.1768C9.01051 21.1768 8.65607 21.1651 7.47539 21.1114C6.38338 21.061 5.79071 20.8786 5.39567 20.7253C4.873 20.5223 4.49966 20.2796 4.10766 19.8876C3.71565 19.4956 3.47298 19.1232 3.26952 18.6003C3.11621 18.2059 2.93351 17.6133 2.88381 16.5213C2.83014 15.3406 2.81941 14.9859 2.81941 11.995C2.81941 9.00411 2.83014 8.65131 2.88381 7.47063C2.93375 6.37862 3.11621 5.78595 3.26952 5.39114C3.47252 4.86847 3.71565 4.49513 4.10766 4.10313C4.49966 3.71113 4.873 3.46846 5.39567 3.26499C5.79047 3.11099 6.38338 2.92898 7.47539 2.87882C8.5086 2.83215 8.90901 2.81815 10.9964 2.81582V2.81862ZM17.9797 4.67831C17.2377 4.67831 16.6357 5.27961 16.6357 6.02185C16.6357 6.76386 17.2377 7.36587 17.9797 7.36587C18.7217 7.36587 19.3237 6.76386 19.3237 6.02185C19.3237 5.27985 18.7217 4.67831 17.9797 4.67831ZM12.0012 6.24865C8.82484 6.24865 6.24951 8.82398 6.24951 12.0004C6.24951 15.1768 8.82484 17.7509 12.0012 17.7509C15.1776 17.7509 17.752 15.1768 17.752 12.0004C17.752 8.82398 15.1776 6.24865 12.0012 6.24865ZM12.0012 8.26701C14.063 8.26701 15.7346 9.93839 15.7346 12.0004C15.7346 14.0621 14.063 15.7338 12.0012 15.7338C9.93921 15.7338 8.26782 14.0621 8.26782 12.0004C8.26782 9.93839 9.93921 8.26701 12.0012 8.26701Z"/>
</svg>
