<svg width="25" height="21" viewBox="0 0 25 21" fill="none" xmlns="http://www.w3.org/2000/svg">
<path d="M17.9062 14.3411C17.9049 14.3411 17.9033 14.3411 17.9019 14.3411C17.7611 14.3395 17.6313 14.2649 17.5592 14.144L13.7205 7.69729C13.7097 7.67926 13.7006 7.66068 13.6928 7.64129C13.2141 6.85541 12.9615 5.95484 12.9615 5.03164C12.9664 2.25561 15.2269 0 18.0015 0C18.0037 0 18.0056 0 18.0077 0C19.3547 0.00188461 20.6193 0.527961 21.5686 1.48104C22.5173 2.4333 23.0386 3.69922 23.0367 5.04511C23.0367 5.95457 22.7852 6.85029 22.3087 7.64102C22.2995 7.66687 22.2874 7.69164 22.2726 7.7156L18.249 14.1516C18.1747 14.2692 18.0452 14.3411 17.9062 14.3411ZM14.4517 7.34649L17.9146 13.1621L21.5427 7.35887C21.5519 7.3341 21.5635 7.30987 21.5777 7.28699C22.0036 6.60664 22.2287 5.83126 22.2287 5.04484C22.2287 5.04457 22.2287 5.04457 22.2287 5.0443C22.2306 3.91353 21.7928 2.85061 20.9962 2.05073C20.1993 1.25084 19.1374 0.809306 18.0067 0.807422C18.005 0.807422 18.0032 0.807422 18.0013 0.807422C15.6711 0.807422 13.773 2.70146 13.7692 5.03218C13.7692 5.82749 13.993 6.60341 14.4159 7.27541C14.4305 7.29776 14.4423 7.32172 14.4517 7.34649Z" fill="black"/>
<path d="M18.0028 6.92352C18.0015 6.92352 18.0002 6.92352 17.9985 6.92352C17.4299 6.92352 16.8944 6.7014 16.4919 6.2981C16.0889 5.89425 15.8676 5.35794 15.8687 4.78745C15.8692 4.21883 16.0916 3.68387 16.4949 3.28164C16.8977 2.88022 17.4323 2.65918 18.0012 2.65918C18.0018 2.65918 18.0026 2.65918 18.0034 2.65918C19.1786 2.66053 20.1341 3.61845 20.133 4.79471C20.1325 5.36414 19.9101 5.89937 19.5068 6.3016C19.1043 6.70275 18.5704 6.92352 18.0028 6.92352ZM18.001 3.46687C17.6477 3.46687 17.3152 3.60418 17.0651 3.85375C16.8147 4.10333 16.6766 4.43556 16.6763 4.78879C16.6758 5.14337 16.8134 5.47667 17.0638 5.7276C17.3136 5.97798 17.6461 6.11583 17.9993 6.11583C18.0002 6.11583 18.001 6.11583 18.002 6.11583C18.3553 6.11583 18.6867 5.97879 18.9365 5.72975C19.1869 5.48017 19.325 5.14768 19.3253 4.79418C19.3258 4.06349 18.7325 3.46795 18.0023 3.46714C18.002 3.46687 18.0015 3.46687 18.001 3.46687ZM19.7291 4.79445H19.7318H19.7291Z" fill="black"/>
<path d="M24.5962 20.0697H0.403753C0.268061 20.0697 0.141523 20.0016 0.0666766 19.8882C-0.00790023 19.7751 -0.0208233 19.6319 0.0324843 19.507L4.43305 9.21109C4.49659 9.06247 4.64278 8.96582 4.80432 8.96582H15.188C15.4112 8.96582 15.5918 9.14647 15.5918 9.36967C15.5918 9.59286 15.4112 9.77351 15.188 9.77351H5.07086L1.01544 19.2617H23.9843L20.0541 10.0675C19.9663 9.86236 20.0616 9.62517 20.2668 9.5374C20.4711 9.4499 20.7091 9.54467 20.7969 9.75009L24.9675 19.5067C25.0208 19.6316 25.0079 19.7749 24.9333 19.888C24.8585 20.0016 24.7319 20.0697 24.5962 20.0697Z" fill="black"/>
<path d="M17.9538 19.9974C17.7513 19.9974 17.5766 19.8455 17.5532 19.6393C17.5508 19.6194 17.2928 17.6324 14.5109 17.1605C14.2521 17.1166 13.8394 17.0765 13.3613 17.0304C10.7285 16.7758 8.32692 16.4451 7.86385 15.214C7.565 14.4197 8.00169 13.8142 8.35223 13.3277C8.73615 12.7952 8.86269 12.5626 8.66669 12.2285C8.54258 12.0168 8.14735 11.8445 7.76504 11.6779C7.01658 11.3516 5.99135 10.9047 5.98597 9.67966C5.98489 9.45646 6.165 9.275 6.38793 9.27393C6.38847 9.27393 6.38927 9.27393 6.38981 9.27393C6.6122 9.27393 6.79258 9.4535 6.79366 9.67589C6.79662 10.3274 7.28473 10.5872 8.08812 10.9375C8.58889 11.1558 9.10661 11.3815 9.36373 11.82C9.84431 12.6396 9.36077 13.3105 9.00781 13.8002C8.67665 14.2595 8.48065 14.5597 8.62012 14.9296C8.94454 15.792 11.9804 16.0855 13.4393 16.2268C13.9328 16.2745 14.359 16.3156 14.646 16.3644C18.02 16.937 18.3436 19.4417 18.3558 19.548C18.3811 19.7696 18.2219 19.9696 18.0004 19.9949C17.9848 19.9966 17.9691 19.9974 17.9538 19.9974Z" fill="black"/>
</svg>
